<?xml version="1.0" encoding="utf-8"?>
<svg id="master-artboard" viewBox="0 0 1400 980" xmlns="http://www.w3.org/2000/svg" width="1400px" height="980px" version="1.1" style="shape-rendering:geometricPrecision; text-rendering:geometricPrecision; image-rendering:optimizeQuality; fill-rule:evenodd; clip-rule:evenodd"><g transform="matrix(0.5235042735042735, 0, 0, 0.5235042735042735, 105.29915934604537, -0.000004682300186686916)"><linearGradient id="SVGID_1_" gradientUnits="userSpaceOnUse" x1="1136" y1="191.1649" x2="1136" y2="1369.4768">
	<stop offset="0" style="stop-color:#201078"/>
	<stop offset="1" style="stop-color:#0D0422"/>
</linearGradient><path d="M 0 86 H 2272 V 1272 H 0 V 86 Z" class="st0" style="fill: url('#SVGID_1_');"/><g class="st1" style="opacity: 0.8;">
	<path d="M 572.0999755859375 554 L 561.9000244140625 552.4000244140625 L 564.5 549 L 561 551.5 L 559.5 541.4000244140625 L 557.9000244140625 551.5 L 554.5 549 L 557 552.4000244140625 L 546.9000244140625 554 L 557 555.5 L 554.5 559 L 557.9000244140625 556.4000244140625 L 559.5 566.5999755859375 L 561 556.4000244140625 L 564.5 559 L 561.9000244140625 555.5 Z" class="st2" style="fill: rgb(255, 255, 255);"/>
	<path d="M 151.6999969482422 575.7999877929688 L 142.6999969482422 571 L 146.1999969482422 568.5999755859375 L 142.10000610351562 569.7999877929688 L 143.89999389648438 559.7000122070312 L 139.10000610351562 568.7999877929688 L 136.6999969482422 565.2999877929688 L 138 569.4000244140625 L 127.9000015258789 567.5 L 137 572.2999877929688 L 133.5 574.7999877929688 L 137.5 573.5 L 135.6999969482422 583.5999755859375 L 140.5 574.5 L 142.89999389648438 578 L 141.60000610351562 573.9000244140625 Z" class="st2" style="fill: rgb(255, 255, 255);"/>
	<path d="M 732.5999755859375 482 L 723.5 477.20001220703125 L 727 474.79998779296875 L 722.9000244140625 476 L 724.7999877929688 465.8999938964844 L 720 475 L 717.5999755859375 471.5 L 718.7999877929688 475.6000061035156 L 708.7000122070312 473.70001220703125 L 717.7999877929688 478.5 L 714.2999877929688 481 L 718.4000244140625 479.70001220703125 L 716.5999755859375 489.79998779296875 L 721.2999877929688 480.70001220703125 L 723.7999877929688 484.20001220703125 L 722.5 480.1000061035156 Z" class="st2" style="fill: rgb(255, 255, 255);"/>
	<path d="M 883.4000244140625 640.2000122070312 L 879.2000122070312 634.5 L 882.0999755859375 634 L 879.2000122070312 633.5999755859375 L 883.4000244140625 627.7999877929688 L 877.5999755859375 632 L 877.2000122070312 629.0999755859375 L 876.7000122070312 632 L 871 627.7999877929688 L 875.2000122070312 633.5999755859375 L 872.2000122070312 634 L 875.2000122070312 634.5 L 871 640.2000122070312 L 876.7000122070312 636 L 877.2000122070312 639 L 877.5999755859375 636 Z" class="st2" style="fill: rgb(255, 255, 255);"/>
	<path d="M 2101.699951171875 924.0999755859375 L 2108.10009765625 920.9000244140625 L 2108.10009765625 923.9000244140625 L 2109 921 L 2114 926.2000122070312 L 2110.699951171875 919.7999877929688 L 2113.699951171875 919.7999877929688 L 2110.89990234375 918.9000244140625 L 2116 913.9000244140625 L 2109.60009765625 917.0999755859375 L 2109.699951171875 914.0999755859375 L 2108.699951171875 917 L 2103.699951171875 911.7999877929688 L 2107 918.2000122070312 L 2104 918.2000122070312 L 2106.800048828125 919.0999755859375 Z" class="st2" style="fill: rgb(255, 255, 255);"/>
	<path d="M 1952.0999755859375 782.7999877929688 L 1957.4000244140625 778 L 1958.199951171875 780.9000244140625 L 1958.300048828125 777.9000244140625 L 1964.5 781.7000122070312 L 1959.699951171875 776.2999877929688 L 1962.5999755859375 775.5999755859375 L 1959.699951171875 775.4000244140625 L 1963.4000244140625 769.2000122070312 L 1958 774 L 1957.300048828125 771.0999755859375 L 1957.0999755859375 774.0999755859375 L 1951 770.2999877929688 L 1955.699951171875 775.7000122070312 L 1952.800048828125 776.4000244140625 L 1955.800048828125 776.5999755859375 Z" class="st2" style="fill: rgb(255, 255, 255);"/>
	<path d="M 1282.699951171875 550.0999755859375 L 1284.699951171875 543.2000122070312 L 1286.9000244140625 545.2999877929688 L 1285.4000244140625 542.7000122070312 L 1292.5999755859375 542.5999755859375 L 1285.699951171875 540.5 L 1287.800048828125 538.4000244140625 L 1285.199951171875 539.7999877929688 L 1285.0999755859375 532.5999755859375 L 1283 539.5 L 1280.9000244140625 537.4000244140625 L 1282.300048828125 540 L 1275.0999755859375 540.2000122070312 L 1282 542.2000122070312 L 1279.9000244140625 544.2999877929688 L 1282.5999755859375 542.9000244140625 Z" class="st2" style="fill: rgb(255, 255, 255);"/>
	<path d="M 1586.4000244140625 637.5999755859375 L 1589.9000244140625 640.0999755859375 L 1588.300048828125 640.9000244140625 L 1590 640.7000122070312 L 1588.699951171875 644.7000122070312 L 1591.199951171875 641.2000122070312 L 1592 642.7999877929688 L 1591.699951171875 641.0999755859375 L 1595.800048828125 642.4000244140625 L 1592.300048828125 639.9000244140625 L 1593.9000244140625 639.0999755859375 L 1592.0999755859375 639.4000244140625 L 1593.4000244140625 635.2999877929688 L 1591 638.7999877929688 L 1590.199951171875 637.2000122070312 L 1590.4000244140625 639 Z" class="st2" style="fill: rgb(255, 255, 255);"/>
	<path d="M 1461.699951171875 628.7999877929688 L 1460.199951171875 632.9000244140625 L 1459 631.5999755859375 L 1459.800048828125 633.2000122070312 L 1455.5 633 L 1459.5999755859375 634.5 L 1458.199951171875 635.7000122070312 L 1459.9000244140625 634.9000244140625 L 1459.699951171875 639.2000122070312 L 1461.0999755859375 635.0999755859375 L 1462.4000244140625 636.5 L 1461.5999755859375 634.7999877929688 L 1465.9000244140625 635 L 1461.800048828125 633.5999755859375 L 1463.0999755859375 632.4000244140625 L 1461.5 633.0999755859375 Z" class="st2" style="fill: rgb(255, 255, 255);"/>
	<path d="M 694.7999877929688 752.5 L 690.9000244140625 750.7000122070312 L 692.2999877929688 749.5999755859375 L 690.5999755859375 750.2999877929688 L 691.2000122070312 746 L 689.4000244140625 749.9000244140625 L 688.2999877929688 748.5 L 688.9000244140625 750.2000122070312 L 684.7000122070312 749.5999755859375 L 688.5999755859375 751.4000244140625 L 687.2000122070312 752.5 L 688.7999877929688 751.9000244140625 L 688.2999877929688 756.0999755859375 L 690.0999755859375 752.2000122070312 L 691.2000122070312 753.5999755859375 L 690.5999755859375 752 Z" class="st2" style="fill: rgb(255, 255, 255);"/>
	<path d="M 1680.300048828125 503.1000061035156 L 1676.0999755859375 503.8999938964844 L 1676.5999755859375 502.20001220703125 L 1675.699951171875 503.70001220703125 L 1673.5999755859375 499.8999938964844 L 1674.4000244140625 504.1000061035156 L 1672.699951171875 503.6000061035156 L 1674.199951171875 504.6000061035156 L 1670.4000244140625 506.70001220703125 L 1674.5999755859375 505.8999938964844 L 1674.0999755859375 507.6000061035156 L 1675.0999755859375 506.1000061035156 L 1677.199951171875 509.8999938964844 L 1676.4000244140625 505.6000061035156 L 1678.0999755859375 506.1000061035156 L 1676.5999755859375 505.20001220703125 Z" class="st2" style="fill: rgb(255, 255, 255);"/>
	<path d="M 1741.0999755859375 649.9000244140625 L 1741.0999755859375 645.7000122070312 L 1742.699951171875 646.5 L 1741.5 645.2000122070312 L 1745.5999755859375 644 L 1741.300048828125 643.9000244140625 L 1742.0999755859375 642.4000244140625 L 1740.800048828125 643.5999755859375 L 1739.5999755859375 639.5 L 1739.5999755859375 643.7999877929688 L 1738 643 L 1739.199951171875 644.2000122070312 L 1735.0999755859375 645.5 L 1739.4000244140625 645.5 L 1738.5999755859375 647.0999755859375 L 1739.9000244140625 645.7999877929688 Z" class="st2" style="fill: rgb(255, 255, 255);"/>
	<path d="M 1538.800048828125 532.7999877929688 L 1538.9000244140625 529.7000122070312 L 1540 530.2999877929688 L 1539.0999755859375 529.4000244140625 L 1542.0999755859375 528.5 L 1539 528.4000244140625 L 1539.5999755859375 527.2999877929688 L 1538.699951171875 528.2000122070312 L 1537.699951171875 525.2000122070312 L 1537.699951171875 528.2999877929688 L 1536.5999755859375 527.7000122070312 L 1537.5 528.7000122070312 L 1534.5 529.5999755859375 L 1537.5999755859375 529.5999755859375 L 1537 530.7000122070312 L 1537.9000244140625 529.7999877929688 Z" class="st2" style="fill: rgb(255, 255, 255);"/>
	<path d="M 939.4000244140625 704.5999755859375 L 939.4000244140625 701.5 L 940.5999755859375 702.0999755859375 L 939.7000122070312 701.2000122070312 L 942.7000122070312 700.2000122070312 L 939.5 700.2000122070312 L 940.0999755859375 699.0999755859375 L 939.2000122070312 700 L 938.2999877929688 697 L 938.2999877929688 700.0999755859375 L 937.0999755859375 699.5 L 938 700.4000244140625 L 935 701.2999877929688 L 938.2000122070312 701.4000244140625 L 937.5999755859375 702.5 L 938.5 701.5999755859375 Z" class="st2" style="fill: rgb(255, 255, 255);"/>
	<path d="M 295.79998779296875 487.70001220703125 L 300.70001220703125 482.3999938964844 L 301.70001220703125 485.20001220703125 L 301.6000061035156 482.29998779296875 L 308.1000061035156 485.29998779296875 L 302.79998779296875 480.5 L 305.6000061035156 479.3999938964844 L 302.6000061035156 479.6000061035156 L 305.6000061035156 473.1000061035156 L 300.79998779296875 478.3999938964844 L 299.79998779296875 475.6000061035156 L 299.8999938964844 478.5 L 293.3999938964844 475.5 L 298.70001220703125 480.29998779296875 L 295.8999938964844 481.3999938964844 L 298.8999938964844 481.20001220703125 Z" class="st2" style="fill: rgb(255, 255, 255);"/>
	<path d="M 1970.699951171875 355.3999938964844 L 1976.699951171875 359.3999938964844 L 1974 360.79998779296875 L 1977 360.20001220703125 L 1975 367.1000061035156 L 1978.9000244140625 361.1000061035156 L 1980.4000244140625 363.70001220703125 L 1979.800048828125 360.79998779296875 L 1986.699951171875 362.79998779296875 L 1980.699951171875 358.79998779296875 L 1983.300048828125 357.3999938964844 L 1980.4000244140625 358 L 1982.4000244140625 351.1000061035156 L 1978.4000244140625 357.1000061035156 L 1977 354.5 L 1977.5999755859375 357.3999938964844 Z" class="st2" style="fill: rgb(255, 255, 255);"/>
	<path d="M 1133.9000244140625 627.7999877929688 L 1138.699951171875 622.5 L 1139.699951171875 625.2999877929688 L 1139.5999755859375 622.2999877929688 L 1146.0999755859375 625.2999877929688 L 1140.800048828125 620.5 L 1143.5999755859375 619.5 L 1140.5999755859375 619.5999755859375 L 1143.699951171875 613.0999755859375 L 1138.800048828125 618.4000244140625 L 1137.800048828125 615.5999755859375 L 1137.9000244140625 618.5999755859375 L 1131.4000244140625 615.5999755859375 L 1136.699951171875 620.4000244140625 L 1133.9000244140625 621.4000244140625 L 1136.9000244140625 621.2999877929688 Z" class="st2" style="fill: rgb(255, 255, 255);"/>
</g><g>
	<linearGradient id="SVGID_2_" gradientUnits="userSpaceOnUse" x1="217.2444" y1="743.9345" x2="797.8092" y2="1324.4993">
		<stop offset="0" style="stop-color:#42A5F1"/>
		<stop offset="1" style="stop-color:#3C28A2"/>
	</linearGradient>
	<path d="M 879.5 1022.599976 A 383.600006 383.600006 0 0 1 495.899994 1406.199982 A 383.600006 383.600006 0 0 1 112.299988 1022.599976 A 383.600006 383.600006 0 0 1 495.899994 638.999969 A 383.600006 383.600006 0 0 1 879.5 1022.599976 Z" class="st3" style="fill: url('#SVGID_2_');"/>
	<g>
		<linearGradient id="SVGID_3_" gradientUnits="userSpaceOnUse" x1="260.3264" y1="787.0164" x2="1109.8658" y2="1636.5558">
			<stop offset="0" style="stop-color:#42A5F1"/>
			<stop offset="1" style="stop-color:#3C28A2"/>
		</linearGradient>
		<path class="st4" d="M508.5,651.6c102.7,0,196.1,40.4,264.9,106.2C703.6,684.6,605.1,639,495.9,639&#10;&#9;&#9;&#9;c-211.9,0-383.6,171.8-383.6,383.6c0,109.1,45.6,207.6,118.7,277.5c-65.8-68.9-106.2-162.2-106.2-264.9&#10;&#9;&#9;&#9;C124.9,823.3,296.6,651.6,508.5,651.6z" style="fill: url('#SVGID_3_');"/>
	</g>
	<linearGradient id="SVGID_4_" gradientUnits="userSpaceOnUse" x1="464.4496" y1="651.2883" x2="894.5986" y2="1375.4624">
		<stop offset="0" style="stop-color:#42A5F1"/>
		<stop offset="1" style="stop-color:#3C28A2"/>
	</linearGradient>
	<path class="st5" d="M529.3,674.1c1.4,7.1-18.1,16.8-43.5,21.7c-25.4,5-47.1,3.3-48.5-3.8c-1.4-7.1,18.1-16.8,43.5-21.7&#10;&#9;&#9;C506.2,665.4,527.9,667.1,529.3,674.1z" style="fill: url('#SVGID_4_');"/>
	<linearGradient id="SVGID_5_" gradientUnits="userSpaceOnUse" x1="301.2971" y1="748.1984" x2="731.4464" y2="1472.373">
		<stop offset="0" style="stop-color:#42A5F1"/>
		<stop offset="1" style="stop-color:#3C28A2"/>
	</linearGradient>
	<path class="st6" d="M334.1,744.1c2.7,6.6-7.7,17.2-23.4,23.6c-15.6,6.4-30.5,6.2-33.2-0.4c-2.7-6.6,7.7-17.2,23.4-23.6&#10;&#9;&#9;C316.4,737.2,331.3,737.4,334.1,744.1z" style="fill: url('#SVGID_5_');"/>
	<linearGradient id="SVGID_6_" gradientUnits="userSpaceOnUse" x1="498.6206" y1="630.9911" x2="928.7703" y2="1355.1664">
		<stop offset="0" style="stop-color:#42A5F1"/>
		<stop offset="1" style="stop-color:#3C28A2"/>
	</linearGradient>
	<path class="st7" d="M651,852.3c2.7,6.6-2.6,15.1-11.9,18.9c-9.3,3.8-19,1.5-21.8-5.1c-2.7-6.6,2.6-15.1,11.9-18.9&#10;&#9;&#9;S648.3,845.7,651,852.3z" style="fill: url('#SVGID_6_');"/>
	<linearGradient id="SVGID_7_" gradientUnits="userSpaceOnUse" x1="370.5574" y1="707.0588" x2="800.7062" y2="1431.2327">
		<stop offset="0" style="stop-color:#42A5F1"/>
		<stop offset="1" style="stop-color:#3C28A2"/>
	</linearGradient>
	<path class="st8" d="M468.7,821.8c-0.3,9.2-14.3,16.2-31.2,15.6c-16.9-0.6-30.3-8.6-30-17.8c0.3-9.2,14.3-16.2,31.2-15.6&#10;&#9;&#9;C455.6,804.7,469,812.6,468.7,821.8z" style="fill: url('#SVGID_7_');"/>
	
		<linearGradient id="SVGID_8_" gradientUnits="userSpaceOnUse" x1="448.084" y1="712.6475" x2="878.2647" y2="1436.8751" gradientTransform="matrix(1.0155 -0.2918 0.3283 1.1947 -459.9414 62.0965)">
		<stop offset="0" style="stop-color:#42A5F1"/>
		<stop offset="1" style="stop-color:#3C28A2"/>
	</linearGradient>
	<path class="st9" d="M319.1,839.4c2.7,11.1-9.2,23.5-26.5,27.7c-17.3,4.2-33.6-1.4-36.3-12.5c-2.7-11.1,9.2-23.5,26.5-27.7&#10;&#9;&#9;C300.2,822.7,316.4,828.3,319.1,839.4z" style="fill: url('#SVGID_8_');"/>
	<linearGradient id="SVGID_9_" gradientUnits="userSpaceOnUse" x1="201.7379" y1="493.4083" x2="873.421" y2="943.618">
		<stop offset="0" style="stop-color:#42A5F1"/>
		<stop offset="1" style="stop-color:#3C28A2"/>
	</linearGradient>
	<path class="st10" d="M526.5,671.3c1.4,7.1-18.1,16.8-43.5,21.7s-47.1,3.3-48.5-3.8c-1.4-7.1,18.1-16.8,43.5-21.7&#10;&#9;&#9;C503.4,662.5,525.1,664.2,526.5,671.3z" style="fill: url('#SVGID_9_');"/>
	<linearGradient id="SVGID_10_" gradientUnits="userSpaceOnUse" x1="113.1061" y1="625.6416" x2="784.7901" y2="1075.8519">
		<stop offset="0" style="stop-color:#42A5F1"/>
		<stop offset="1" style="stop-color:#3C28A2"/>
	</linearGradient>
	<path class="st11" d="M331.2,741.3c2.7,6.6-7.7,17.2-23.4,23.6c-15.6,6.4-30.5,6.2-33.2-0.4c-2.7-6.6,7.7-17.2,23.4-23.6&#10;&#9;&#9;C313.6,734.4,328.5,734.6,331.2,741.3z" style="fill: url('#SVGID_10_');"/>
	<linearGradient id="SVGID_11_" gradientUnits="userSpaceOnUse" x1="167.0447" y1="545.1699" x2="838.7289" y2="995.3804">
		<stop offset="0" style="stop-color:#42A5F1"/>
		<stop offset="1" style="stop-color:#3C28A2"/>
	</linearGradient>
	<path class="st12" d="M648.2,849.5c2.7,6.6-2.6,15.1-11.9,18.9c-9.3,3.8-19,1.5-21.8-5.1c-2.7-6.6,2.6-15.1,11.9-18.9&#10;&#9;&#9;C635.7,840.5,645.5,842.8,648.2,849.5z" style="fill: url('#SVGID_11_');"/>
	<linearGradient id="SVGID_12_" gradientUnits="userSpaceOnUse" x1="124.0441" y1="609.3234" x2="795.7292" y2="1059.5344">
		<stop offset="0" style="stop-color:#42A5F1"/>
		<stop offset="1" style="stop-color:#3C28A2"/>
	</linearGradient>
	<path class="st13" d="M465.8,819c-0.3,9.2-14.3,16.2-31.2,15.6c-16.9-0.6-30.3-8.6-30-17.8c0.3-9.2,14.3-16.2,31.2-15.6&#10;&#9;&#9;C452.8,801.8,466.2,809.8,465.8,819z" style="fill: url('#SVGID_12_');"/>
	
		<linearGradient id="SVGID_13_" gradientUnits="userSpaceOnUse" x1="267.4079" y1="627.8621" x2="939.1319" y2="1078.0992" gradientTransform="matrix(1.0155 -0.2918 0.3283 1.1947 -459.9414 62.0965)">
		<stop offset="0" style="stop-color:#42A5F1"/>
		<stop offset="1" style="stop-color:#3C28A2"/>
	</linearGradient>
	<path class="st14" d="M316.3,836.6c2.7,11.1-9.2,23.5-26.5,27.7s-33.6-1.4-36.3-12.5c-2.7-11.1,9.2-23.5,26.5-27.7&#10;&#9;&#9;C297.3,819.9,313.6,825.5,316.3,836.6z" style="fill: url('#SVGID_13_');"/>
	<g>
		
			<linearGradient id="SVGID_14_" gradientUnits="userSpaceOnUse" x1="724.5505" y1="711.8064" x2="1154.6947" y2="1435.9727" gradientTransform="matrix(1.1659 -0.238 0.2729 1.4541 -618.1338 -372.1112)">
			<stop offset="0" style="stop-color:#42A5F1"/>
			<stop offset="1" style="stop-color:#3C28A2"/>
		</linearGradient>
		<path class="st15" d="M654.3,753.4c2.1,13.5-12.2,27-32.1,30.1c-19.9,3.1-37.7-5.3-39.8-18.7s12.2-27,32.1-30.1&#10;&#9;&#9;&#9;C634.4,731.5,652.2,739.9,654.3,753.4z" style="fill: url('#SVGID_14_');"/>
		
			<linearGradient id="SVGID_15_" gradientUnits="userSpaceOnUse" x1="406.0338" y1="620.4587" x2="1077.7085" y2="1070.6628" gradientTransform="matrix(1.1659 -0.238 0.2729 1.4541 -618.1338 -372.1112)">
			<stop offset="0" style="stop-color:#42A5F1"/>
			<stop offset="1" style="stop-color:#3C28A2"/>
		</linearGradient>
		<path class="st16" d="M651.5,750.5c2.1,13.5-12.2,27-32.1,30.1c-19.9,3.1-37.7-5.3-39.8-18.7c-2.1-13.5,12.2-27,32.1-30.1&#10;&#9;&#9;&#9;C631.6,728.7,649.4,737.1,651.5,750.5z" style="fill: url('#SVGID_15_');"/>
	</g>
	<g>
		
			<linearGradient id="SVGID_16_" gradientUnits="userSpaceOnUse" x1="754.2532" y1="873.4454" x2="1184.3976" y2="1597.6117" gradientTransform="matrix(1.1659 -0.238 0.2729 1.4541 -618.1338 -372.1112)">
			<stop offset="0" style="stop-color:#42A5F1"/>
			<stop offset="1" style="stop-color:#3C28A2"/>
		</linearGradient>
		<path class="st17" d="M733.1,981.3c2.1,13.5-12.2,27-32.1,30.1c-19.9,3.1-37.7-5.3-39.8-18.7s12.2-27,32.1-30.1&#10;&#9;&#9;&#9;C713.1,959.4,730.9,967.8,733.1,981.3z" style="fill: url('#SVGID_16_');"/>
		
			<linearGradient id="SVGID_17_" gradientUnits="userSpaceOnUse" x1="435.7365" y1="782.0977" x2="1107.4113" y2="1232.3019" gradientTransform="matrix(1.1659 -0.238 0.2729 1.4541 -618.1338 -372.1112)">
			<stop offset="0" style="stop-color:#42A5F1"/>
			<stop offset="1" style="stop-color:#3C28A2"/>
		</linearGradient>
		<path class="st18" d="M730.2,978.5c2.1,13.5-12.2,27-32.1,30.1c-19.9,3.1-37.7-5.3-39.8-18.7c-2.1-13.5,12.2-27,32.1-30.1&#10;&#9;&#9;&#9;C710.3,956.6,728.1,965,730.2,978.5z" style="fill: url('#SVGID_17_');"/>
	</g>
	<g>
		
			<linearGradient id="SVGID_18_" gradientUnits="userSpaceOnUse" x1="174.6544" y1="1253.8787" x2="604.7987" y2="1978.0449" gradientTransform="matrix(1.0528 0.5546 -0.7102 1.2979 1051.2109 -1092.1061)">
			<stop offset="0" style="stop-color:#42A5F1"/>
			<stop offset="1" style="stop-color:#3C28A2"/>
		</linearGradient>
		<path class="st19" d="M358.6,983.4c-6.9,11.8-26.6,13.1-43.9,2.9c-17.3-10.2-25.8-27.9-18.9-39.7c6.9-11.8,26.6-13.1,43.9-2.9&#10;&#9;&#9;&#9;C357,953.8,365.5,971.6,358.6,983.4z" style="fill: url('#SVGID_18_');"/>
		
			<linearGradient id="SVGID_19_" gradientUnits="userSpaceOnUse" x1="-143.8622" y1="1162.5309" x2="527.8125" y2="1612.735" gradientTransform="matrix(1.0528 0.5546 -0.7102 1.2979 1051.2109 -1092.1061)">
			<stop offset="0" style="stop-color:#42A5F1"/>
			<stop offset="1" style="stop-color:#3C28A2"/>
		</linearGradient>
		<path class="st20" d="M358.2,979.4c-6.9,11.8-26.6,13.1-43.9,2.9c-17.3-10.2-25.8-27.9-18.9-39.7c6.9-11.8,26.6-13.1,43.9-2.9&#10;&#9;&#9;&#9;C356.6,949.9,365.1,967.7,358.2,979.4z" style="fill: url('#SVGID_19_');"/>
	</g>
	<g>
		
			<linearGradient id="SVGID_20_" gradientUnits="userSpaceOnUse" x1="1393.4443" y1="719.2668" x2="1823.5886" y2="1443.433" gradientTransform="matrix(0.4269 -1.1107 1.3724 0.5527 -1706.7933 2202.7087)">
			<stop offset="0" style="stop-color:#42A5F1"/>
			<stop offset="1" style="stop-color:#3C28A2"/>
		</linearGradient>
		<path class="st21" d="M222.4,997.2c12.5,5.5,16.1,24.8,8.1,43.2c-8,18.4-24.7,28.9-37.2,23.5c-12.5-5.5-16.1-24.8-8.1-43.2&#10;&#9;&#9;&#9;C193.3,1002.3,209.9,991.8,222.4,997.2z" style="fill: url('#SVGID_20_');"/>
		
			<linearGradient id="SVGID_21_" gradientUnits="userSpaceOnUse" x1="1074.9277" y1="627.9191" x2="1746.6024" y2="1078.1232" gradientTransform="matrix(0.4269 -1.1107 1.3724 0.5527 -1706.7933 2202.7087)">
			<stop offset="0" style="stop-color:#42A5F1"/>
			<stop offset="1" style="stop-color:#3C28A2"/>
		</linearGradient>
		<path class="st22" d="M218.6,998.1c12.5,5.5,16.1,24.8,8.1,43.2c-8,18.4-24.7,28.9-37.2,23.5c-12.5-5.5-16.1-24.8-8.1-43.2&#10;&#9;&#9;&#9;C189.4,1003.1,206,992.6,218.6,998.1z" style="fill: url('#SVGID_21_');"/>
	</g>
</g><path d="M 1177.800048828125 854.9000244140625 L 1094.199951171875 854.9000244140625 L 1075.4000244140625 309.3999938964844 L 1196.5999755859375 309.3999938964844 Z" class="st23" style="fill: rgb(111, 118, 170);"/><path d="M 2272 1376.699951171875 L 2272 1872 L 0 1872 L 0 1376.699951171875 L 450.6000061035156 1030.699951171875 L 1821.4000244140625 1030.699951171875 Z" class="st24" style="fill: rgb(58, 76, 130);"/><path d="M 1888.199951171875 1082 L 1136 1062 L 383.79998779296875 1082 L 0 1585 L 0 1872 L 434 1608 L 1136 1564 L 1838 1608 L 2272 1872 L 2272 1585 Z" class="st25" style="fill: rgb(62, 82, 135);"/><path d="M 2272 1184.5 L 2272 1586.0999755859375 L 1846 1158 L 426 1157.300048828125 L 0 1585.4000244140625 L 0 1183.800048828125 L 190.3000030517578 1117.0999755859375 L 511.6000061035156 795.7999877929688 L 1136 729.0999755859375 L 1136 729.9000244140625 L 1760.4000244140625 796.5999755859375 L 2081.699951171875 1117.9000244140625 Z" class="st26" style="fill: rgb(92, 103, 158);"/><path class="st27" d="M389.2,1104l167.7-234.9l575.5-86.1l582.6,87.2l167.7,235L389.2,1104z" style="fill: rgb(31, 31, 40);"/><g>
	<g>
		<path d="M 545 1056.099976 H 645 V 1076.099976 H 545 V 1056.099976 Z" class="st28" style="fill: rgb(101, 117, 44);"/>
		<path d="M 595 1004.099976 H 640 V 1023.099976 H 595 V 1004.099976 Z" class="st28" style="fill: rgb(101, 117, 44);"/>
		<path d="M 698 892.099976 H 824 V 911.099976 H 698 V 892.099976 Z" class="st28" style="fill: rgb(101, 117, 44);"/>
		<path d="M 717 948.099976 H 843 V 967.099976 H 717 V 948.099976 Z" class="st28" style="fill: rgb(101, 117, 44);"/>
		<path d="M 685 1056.099976 H 785 V 1076.099976 H 685 V 1056.099976 Z" class="st28" style="fill: rgb(101, 117, 44);"/>
	</g>
	<g>
		<path d="M 1429 1034.099976 H 1529 V 1054.099976 H 1429 V 1034.099976 Z" class="st28" style="fill: rgb(101, 117, 44);"/>
		<path d="M 1479 982.099976 H 1524 V 1001.099976 H 1479 V 982.099976 Z" class="st28" style="fill: rgb(101, 117, 44);"/>
		<path d="M 1429 870 H 1555 V 889 H 1429 V 870 Z" class="st28" style="fill: rgb(101, 117, 44);"/>
		<path d="M 1601 926.099976 H 1727 V 945.099976 H 1601 V 926.099976 Z" class="st28" style="fill: rgb(101, 117, 44);"/>
		<path d="M 1569 1034.099976 H 1669 V 1054.099976 H 1569 V 1034.099976 Z" class="st28" style="fill: rgb(101, 117, 44);"/>
	</g>
	<g>
		
			<path d="M 1266 976.099976 H 1366 V 996.099976 H 1266 V 976.099976 Z" transform="matrix(-1 4.489241e-11 -4.489241e-11 -1 2632.0381 1972.1157)" class="st28" style="fill: rgb(101, 117, 44);"/>
		
			<path d="M 1271 924.099976 H 1316 V 943.099976 H 1271 V 924.099976 Z" transform="matrix(-1 4.490884e-11 -4.490884e-11 -1 2587.0381 1867.1157)" class="st28" style="fill: rgb(101, 117, 44);"/>
		
			<path d="M 1087 812.099976 H 1213 V 831.099976 H 1087 V 812.099976 Z" transform="matrix(-1 4.489730e-11 -4.489730e-11 -1 2300.0381 1643.1157)" class="st28" style="fill: rgb(101, 117, 44);"/>
		
			<path d="M 1068 868.099976 H 1194 V 887.099976 H 1068 V 868.099976 Z" transform="matrix(-1 4.489730e-11 -4.489730e-11 -1 2262.0381 1755.1157)" class="st28" style="fill: rgb(101, 117, 44);"/>
		
			<path d="M 1126 976.099976 H 1226 V 996.099976 H 1126 V 976.099976 Z" transform="matrix(-1 4.489241e-11 -4.489241e-11 -1 2352.0381 1972.1157)" class="st28" style="fill: rgb(101, 117, 44);"/>
	</g>
</g><path d="M 2272 0 L 2272 201.8000030517578 L 2271.39990234375 202 L 1767.300048828125 406.29998779296875 L 1136 460.8999938964844 L 504.70001220703125 406.29998779296875 L 0.6000000238418579 202 L 0 201.8000030517578 L 0 0 Z" class="st29" style="fill: rgb(119, 133, 183);"/><path d="M 2272 0 L 2271.39990234375 186 L 1767.300048828125 378.29998779296875 L 1136 432.8999938964844 L 504.70001220703125 378.29998779296875 L 0 185.8000030517578 L 0 0 Z" class="st26" style="fill: rgb(92, 103, 158);"/><path d="M 2272 0 L 2271.39990234375 130.10000610351562 L 1767.300048828125 264.70001220703125 L 1136 302.8999938964844 L 504.70001220703125 264.70001220703125 L 0 130 L 0 0 Z" class="st30" style="fill: rgb(83, 98, 150);"/><path d="M 1267.5999755859375 364 L 1004.4000244140625 364 L 959 309 L 1313 309 Z" class="st31" style="fill: rgb(70, 85, 142);"/><path d="M 0 201.8000030517578 L 0.6000000238418579 202 L 0 202 Z" class="st32" style="fill: rgb(96, 96, 96);"/><path d="M 2272 201.8000030517578 L 2272 202 L 2271.39990234375 202 Z" class="st32" style="fill: rgb(96, 96, 96);"/><path class="st33" d="M1588,1158v404c0,132-202.4,239-452,239s-452-107-452-239v-404H1588z" style="fill: rgb(70, 86, 145);"/><path d="M 1588 1158 A 452 239 0 0 1 1136 1397 A 452 239 0 0 1 684 1158 A 452 239 0 0 1 1136 919 A 452 239 0 0 1 1588 1158 Z" class="st23" style="fill: rgb(111, 118, 170);"/><g>
	<g>
		<path d="M 639.699997 1305 A 103.199997 166 0 0 1 536.5 1471 A 103.199997 166 0 0 1 433.300003 1305 A 103.199997 166 0 0 1 536.5 1139 A 103.199997 166 0 0 1 639.699997 1305 Z" class="st34" style="fill: rgb(131, 208, 218);"/>
		<g>
			<path d="M 478.5 1225.900024 H 497 V 1378.900024 H 478.5 V 1225.900024 Z" class="st35" style="fill: rgb(25, 63, 149);"/>
			<path d="M 576.099976 1225.900024 H 594.599976 V 1378.900024 H 576.099976 V 1225.900024 Z" class="st35" style="fill: rgb(25, 63, 149);"/>
		</g>
		<g>
			<path d="M 506.200012 1228.5 H 566.900013 V 1233.8 H 506.200012 V 1228.5 Z" class="st36" style="fill: rgb(91, 181, 188);"/>
			<path d="M 506.200012 1249.599976 H 566.900013 V 1254.899976 H 506.200012 V 1249.599976 Z" class="st36" style="fill: rgb(91, 181, 188);"/>
			<path d="M 506.200012 1270.699951 H 566.900013 V 1275.999951 H 506.200012 V 1270.699951 Z" class="st36" style="fill: rgb(91, 181, 188);"/>
			<path d="M 506.200012 1291.800049 H 566.900013 V 1297.100049 H 506.200012 V 1291.800049 Z" class="st36" style="fill: rgb(91, 181, 188);"/>
			<path d="M 506.200012 1312.900024 H 566.900013 V 1318.200025 H 506.200012 V 1312.900024 Z" class="st36" style="fill: rgb(91, 181, 188);"/>
			<path d="M 506.200012 1334 H 566.900013 V 1339.3 H 506.200012 V 1334 Z" class="st36" style="fill: rgb(91, 181, 188);"/>
			<path d="M 506.200012 1355.099976 H 566.900013 V 1360.399976 H 506.200012 V 1355.099976 Z" class="st36" style="fill: rgb(91, 181, 188);"/>
			<path d="M 506.200012 1376.199951 H 566.900013 V 1381.499951 H 506.200012 V 1376.199951 Z" class="st36" style="fill: rgb(91, 181, 188);"/>
		</g>
		<path d="M 445.5 1194.199951 H 627.5 V 1249.599953 H 445.5 V 1194.199951 Z" class="st37" style="fill: rgb(53, 106, 201);"/>
	</g>
	<g>
		<path d="M 1838.699997 1305 A 103.199997 166 0 0 1 1735.5 1471 A 103.199997 166 0 0 1 1632.300003 1305 A 103.199997 166 0 0 1 1735.5 1139 A 103.199997 166 0 0 1 1838.699997 1305 Z" class="st34" style="fill: rgb(131, 208, 218);"/>
		<g>
			<path d="M 1677.5 1225.900024 H 1696 V 1378.900024 H 1677.5 V 1225.900024 Z" class="st35" style="fill: rgb(25, 63, 149);"/>
			<path d="M 1775.099976 1225.900024 H 1793.599976 V 1378.900024 H 1775.099976 V 1225.900024 Z" class="st35" style="fill: rgb(25, 63, 149);"/>
		</g>
		<g>
			<path d="M 1705.199951 1228.5 H 1765.899952 V 1233.8 H 1705.199951 V 1228.5 Z" class="st36" style="fill: rgb(91, 181, 188);"/>
			<path d="M 1705.199951 1249.599976 H 1765.899952 V 1254.899976 H 1705.199951 V 1249.599976 Z" class="st36" style="fill: rgb(91, 181, 188);"/>
			<path d="M 1705.199951 1270.699951 H 1765.899952 V 1275.999951 H 1705.199951 V 1270.699951 Z" class="st36" style="fill: rgb(91, 181, 188);"/>
			<path d="M 1705.199951 1291.800049 H 1765.899952 V 1297.100049 H 1705.199951 V 1291.800049 Z" class="st36" style="fill: rgb(91, 181, 188);"/>
			<path d="M 1705.199951 1312.900024 H 1765.899952 V 1318.200025 H 1705.199951 V 1312.900024 Z" class="st36" style="fill: rgb(91, 181, 188);"/>
			<path d="M 1705.199951 1334 H 1765.899952 V 1339.3 H 1705.199951 V 1334 Z" class="st36" style="fill: rgb(91, 181, 188);"/>
			<path d="M 1705.199951 1355.099976 H 1765.899952 V 1360.399976 H 1705.199951 V 1355.099976 Z" class="st36" style="fill: rgb(91, 181, 188);"/>
			<path d="M 1705.199951 1376.199951 H 1765.899952 V 1381.499951 H 1705.199951 V 1376.199951 Z" class="st36" style="fill: rgb(91, 181, 188);"/>
		</g>
		<path d="M 1644.5 1194.199951 H 1826.5 V 1249.599953 H 1644.5 V 1194.199951 Z" class="st37" style="fill: rgb(53, 106, 201);"/>
	</g>
</g><g>
	<g>
		<path class="st33" d="M1401.2,1203c-176.8,0-353.6,0-530.4,0c29.5-80,58.9-160,88.4-240c117.9,0,235.7,0,353.6,0&#10;&#9;&#9;&#9;C1342.3,1043,1371.7,1123,1401.2,1203z" style="fill: rgb(70, 86, 145);"/>
	</g>
	<g>
		<path d="M1386.8,1196.1c-165.6,0-331.2,0-496.8,0c26-75.4,52-150.8,78-226.2c113.1,0,226.1,0,339.2,0&#10;&#9;&#9;&#9;C1333.7,1045.3,1360.3,1120.7,1386.8,1196.1z"/>
	</g>
	<g>
		<g>
			<path class="st28" d="M1256.5,1163.8c-0.8,0-1.5,0-2.3,0c-9.4-53.8-18.7-107.7-28.1-161.5c0.6,0,1.2,0,1.7,0&#10;&#9;&#9;&#9;&#9;C1237.4,1056.1,1247,1109.9,1256.5,1163.8z" style="fill: rgb(101, 117, 44);"/>
		</g>
		<g>
			<path class="st28" d="M1226.7,1163.8c-0.8,0-1.5,0-2.3,0c-7-53.8-14-107.7-21-161.5c0.6,0,1.2,0,1.7,0&#10;&#9;&#9;&#9;&#9;C1212.3,1056.1,1219.5,1109.9,1226.7,1163.8z" style="fill: rgb(101, 117, 44);"/>
		</g>
		<g>
			<path class="st28" d="M1196.8,1163.8c-0.8,0-1.5,0-2.3,0c-4.6-53.8-9.3-107.7-13.9-161.5c0.6,0,1.2,0,1.7,0&#10;&#9;&#9;&#9;&#9;C1187.2,1056.1,1192,1109.9,1196.8,1163.8z" style="fill: rgb(101, 117, 44);"/>
		</g>
		<g>
			<path class="st28" d="M1167,1163.8c-0.8,0-1.5,0-2.3,0c-2.3-53.8-4.5-107.7-6.8-161.5c0.6,0,1.2,0,1.7,0&#10;&#9;&#9;&#9;&#9;C1162.1,1056.1,1164.5,1109.9,1167,1163.8z" style="fill: rgb(101, 117, 44);"/>
		</g>
		<g>
			<path class="st28" d="M1137.1,1163.8c-0.8,0-1.5,0-2.3,0c0.1-53.8,0.2-107.7,0.3-161.5c0.6,0,1.2,0,1.7,0&#10;&#9;&#9;&#9;&#9;C1137,1056.1,1137,1109.9,1137.1,1163.8z" style="fill: rgb(101, 117, 44);"/>
		</g>
		<g>
			<path class="st28" d="M1107.3,1163.8c-0.8,0-1.5,0-2.3,0c2.4-53.8,4.9-107.7,7.4-161.5c0.6,0,1.2,0,1.7,0&#10;&#9;&#9;&#9;&#9;C1111.8,1056.1,1109.6,1109.9,1107.3,1163.8z" style="fill: rgb(101, 117, 44);"/>
		</g>
		<g>
			<path class="st28" d="M1077.5,1163.8c-0.8,0-1.5,0-2.3,0c4.8-53.8,9.6-107.7,14.4-161.5c0.6,0,1.2,0,1.7,0&#10;&#9;&#9;&#9;&#9;C1086.7,1056.1,1082.1,1109.9,1077.5,1163.8z" style="fill: rgb(101, 117, 44);"/>
		</g>
		<g>
			<path class="st28" d="M1047.6,1163.8c-0.8,0-1.5,0-2.3,0c7.2-53.8,14.3-107.7,21.5-161.5c0.6,0,1.2,0,1.7,0&#10;&#9;&#9;&#9;&#9;C1061.6,1056.1,1054.6,1109.9,1047.6,1163.8z" style="fill: rgb(101, 117, 44);"/>
		</g>
		<g>
			<path class="st28" d="M1286.3,1163.8c-0.8,0-1.5,0-2.3,0c-11.7-53.8-23.4-107.7-35.1-161.5c0.6,0,1.2,0,1.7,0&#10;&#9;&#9;&#9;&#9;C1262.6,1056.1,1274.4,1109.9,1286.3,1163.8z" style="fill: rgb(101, 117, 44);"/>
		</g>
		<g>
			<path class="st28" d="M1017.8,1163.8c-0.8,0-1.5,0-2.3,0c9.5-53.8,19.1-107.7,28.6-161.5c0.6,0,1.2,0,1.7,0&#10;&#9;&#9;&#9;&#9;C1036.5,1056.1,1027.1,1109.9,1017.8,1163.8z" style="fill: rgb(101, 117, 44);"/>
		</g>
		<g>
			<path class="st28" d="M1256.5,1163.8c-0.8,0-1.5,0-2.3,0c-9.4-53.8-18.7-107.7-28.1-161.5c0.6,0,1.2,0,1.7,0&#10;&#9;&#9;&#9;&#9;C1237.4,1056.1,1247,1109.9,1256.5,1163.8z" style="fill: rgb(101, 117, 44);"/>
		</g>
		<g>
			<path class="st28" d="M1226.7,1163.8c-0.8,0-1.5,0-2.3,0c-7-53.8-14-107.7-21-161.5c0.6,0,1.2,0,1.7,0&#10;&#9;&#9;&#9;&#9;C1212.3,1056.1,1219.5,1109.9,1226.7,1163.8z" style="fill: rgb(101, 117, 44);"/>
		</g>
		<g>
			<path class="st28" d="M1196.8,1163.8c-0.8,0-1.5,0-2.3,0c-4.6-53.8-9.3-107.7-13.9-161.5c0.6,0,1.2,0,1.7,0&#10;&#9;&#9;&#9;&#9;C1187.2,1056.1,1192,1109.9,1196.8,1163.8z" style="fill: rgb(101, 117, 44);"/>
		</g>
		<g>
			<path class="st28" d="M1167,1163.8c-0.8,0-1.5,0-2.3,0c-2.3-53.8-4.5-107.7-6.8-161.5c0.6,0,1.2,0,1.7,0&#10;&#9;&#9;&#9;&#9;C1162.1,1056.1,1164.5,1109.9,1167,1163.8z" style="fill: rgb(101, 117, 44);"/>
		</g>
		<g>
			<path class="st28" d="M1137.1,1163.8c-0.8,0-1.5,0-2.3,0c0.1-53.8,0.2-107.7,0.3-161.5c0.6,0,1.2,0,1.7,0&#10;&#9;&#9;&#9;&#9;C1137,1056.1,1137,1109.9,1137.1,1163.8z" style="fill: rgb(101, 117, 44);"/>
		</g>
		<g>
			<path class="st28" d="M1107.3,1163.8c-0.8,0-1.5,0-2.3,0c2.4-53.8,4.9-107.7,7.4-161.5c0.6,0,1.2,0,1.7,0&#10;&#9;&#9;&#9;&#9;C1111.8,1056.1,1109.6,1109.9,1107.3,1163.8z" style="fill: rgb(101, 117, 44);"/>
		</g>
		<g>
			<path class="st28" d="M1077.5,1163.8c-0.8,0-1.5,0-2.3,0c4.8-53.8,9.6-107.7,14.4-161.5c0.6,0,1.2,0,1.7,0&#10;&#9;&#9;&#9;&#9;C1086.7,1056.1,1082.1,1109.9,1077.5,1163.8z" style="fill: rgb(101, 117, 44);"/>
		</g>
		<g>
			<path class="st28" d="M1047.6,1163.8c-0.8,0-1.5,0-2.3,0c7.2-53.8,14.3-107.7,21.5-161.5c0.6,0,1.2,0,1.7,0&#10;&#9;&#9;&#9;&#9;C1061.6,1056.1,1054.6,1109.9,1047.6,1163.8z" style="fill: rgb(101, 117, 44);"/>
		</g>
		<g>
			<path class="st28" d="M1017.8,1163.8c-0.8,0-1.5,0-2.3,0c9.5-53.8,19.1-107.7,28.6-161.5c0.6,0,1.2,0,1.7,0&#10;&#9;&#9;&#9;&#9;C1036.5,1056.1,1027.1,1109.9,1017.8,1163.8z" style="fill: rgb(101, 117, 44);"/>
		</g>
		<g>
			<path class="st28" d="M1250.4,1002.8c-76.2,0-152.5,0-228.7,0c0.1-0.5,0.2-1,0.3-1.5c76,0,152,0,228.1,0&#10;&#9;&#9;&#9;&#9;C1250.1,1001.8,1250.3,1002.3,1250.4,1002.8z" style="fill: rgb(101, 117, 44);"/>
		</g>
		<g>
			<path class="st28" d="M1254.8,1023.1c-79.2,0-158.4,0-237.6,0c0.1-0.5,0.2-1,0.3-1.5c79,0,158,0,237,0&#10;&#9;&#9;&#9;&#9;C1254.6,1022.1,1254.7,1022.6,1254.8,1023.1z" style="fill: rgb(101, 117, 44);"/>
		</g>
		<g>
			<path class="st28" d="M1259.3,1043.3c-82.2,0-164.4,0-246.5,0c0.1-0.5,0.2-1,0.3-1.5c82,0,163.9,0,245.9,0&#10;&#9;&#9;&#9;&#9;C1259,1042.3,1259.2,1042.8,1259.3,1043.3z" style="fill: rgb(101, 117, 44);"/>
		</g>
		<g>
			<path class="st28" d="M1263.7,1063.5c-85.1,0-170.3,0-255.4,0c0.1-0.5,0.2-1,0.3-1.5c84.9,0,169.8,0,254.8,0&#10;&#9;&#9;&#9;&#9;C1263.5,1062.5,1263.6,1063,1263.7,1063.5z" style="fill: rgb(101, 117, 44);"/>
		</g>
		<g>
			<path class="st28" d="M1268.2,1083.8c-88.1,0-176.2,0-264.3,0c0.1-0.5,0.2-1,0.3-1.5c87.9,0,175.8,0,263.7,0&#10;&#9;&#9;&#9;&#9;C1267.9,1082.7,1268.1,1083.3,1268.2,1083.8z" style="fill: rgb(101, 117, 44);"/>
		</g>
		<g>
			<path class="st28" d="M1272.6,1104c-91.1,0-182.2,0-273.2,0c0.1-0.5,0.2-1,0.3-1.5c90.9,0,181.7,0,272.6,0&#10;&#9;&#9;&#9;&#9;C1272.4,1103,1272.5,1103.5,1272.6,1104z" style="fill: rgb(101, 117, 44);"/>
		</g>
		<g>
			<path class="st28" d="M1277.1,1124.2c-94,0-188.1,0-282.1,0c0.1-0.5,0.2-1,0.3-1.5c93.8,0,187.6,0,281.5,0&#10;&#9;&#9;&#9;&#9;C1276.8,1123.2,1277,1123.7,1277.1,1124.2z" style="fill: rgb(101, 117, 44);"/>
		</g>
		<g>
			<path class="st28" d="M1281.5,1144.5c-97,0-194,0-291,0c0.1-0.5,0.2-1,0.3-1.5c96.8,0,193.6,0,290.4,0&#10;&#9;&#9;&#9;&#9;C1281.3,1143.4,1281.4,1143.9,1281.5,1144.5z" style="fill: rgb(101, 117, 44);"/>
		</g>
		<g>
			<path class="st28" d="M1286,1164.7c-100,0-200,0-299.9,0c0.1-0.5,0.2-1,0.3-1.5c99.8,0,199.5,0,299.3,0&#10;&#9;&#9;&#9;&#9;C1285.7,1163.7,1285.9,1164.2,1286,1164.7z" style="fill: rgb(101, 117, 44);"/>
		</g>
		<g>
			<path class="st28" d="M1250.4,1002.8c-76.2,0-152.5,0-228.7,0c0.1-0.5,0.2-1,0.3-1.5c76,0,152,0,228.1,0&#10;&#9;&#9;&#9;&#9;C1250.1,1001.8,1250.3,1002.3,1250.4,1002.8z" style="fill: rgb(101, 117, 44);"/>
		</g>
		<g>
			<path class="st28" d="M1254.8,1023.1c-79.2,0-158.4,0-237.6,0c0.1-0.5,0.2-1,0.3-1.5c79,0,158,0,237,0&#10;&#9;&#9;&#9;&#9;C1254.6,1022.1,1254.7,1022.6,1254.8,1023.1z" style="fill: rgb(101, 117, 44);"/>
		</g>
		<g>
			<path class="st28" d="M1259.3,1043.3c-82.2,0-164.4,0-246.5,0c0.1-0.5,0.2-1,0.3-1.5c82,0,163.9,0,245.9,0&#10;&#9;&#9;&#9;&#9;C1259,1042.3,1259.2,1042.8,1259.3,1043.3z" style="fill: rgb(101, 117, 44);"/>
		</g>
		<g>
			<path class="st28" d="M1263.7,1063.5c-85.1,0-170.3,0-255.4,0c0.1-0.5,0.2-1,0.3-1.5c84.9,0,169.8,0,254.8,0&#10;&#9;&#9;&#9;&#9;C1263.5,1062.5,1263.6,1063,1263.7,1063.5z" style="fill: rgb(101, 117, 44);"/>
		</g>
		<g>
			<path class="st28" d="M1268.2,1083.8c-88.1,0-176.2,0-264.3,0c0.1-0.5,0.2-1,0.3-1.5c87.9,0,175.8,0,263.7,0&#10;&#9;&#9;&#9;&#9;C1267.9,1082.7,1268.1,1083.3,1268.2,1083.8z" style="fill: rgb(101, 117, 44);"/>
		</g>
		<g>
			<path class="st28" d="M1272.6,1104c-91.1,0-182.2,0-273.2,0c0.1-0.5,0.2-1,0.3-1.5c90.9,0,181.7,0,272.6,0&#10;&#9;&#9;&#9;&#9;C1272.4,1103,1272.5,1103.5,1272.6,1104z" style="fill: rgb(101, 117, 44);"/>
		</g>
		<g>
			<path class="st28" d="M1277.1,1124.2c-94,0-188.1,0-282.1,0c0.1-0.5,0.2-1,0.3-1.5c93.8,0,187.6,0,281.5,0&#10;&#9;&#9;&#9;&#9;C1276.8,1123.2,1277,1123.7,1277.1,1124.2z" style="fill: rgb(101, 117, 44);"/>
		</g>
		<g>
			<path class="st28" d="M1281.5,1144.5c-97,0-194,0-291,0c0.1-0.5,0.2-1,0.3-1.5c96.8,0,193.6,0,290.4,0&#10;&#9;&#9;&#9;&#9;C1281.3,1143.4,1281.4,1143.9,1281.5,1144.5z" style="fill: rgb(101, 117, 44);"/>
		</g>
		<g>
			<path class="st28" d="M1286,1164.7c-100,0-200,0-299.9,0c0.1-0.5,0.2-1,0.3-1.5c99.8,0,199.5,0,299.3,0&#10;&#9;&#9;&#9;&#9;C1285.7,1163.7,1285.9,1164.2,1286,1164.7z" style="fill: rgb(101, 117, 44);"/>
		</g>
		<g>
			<path class="st28" d="M987.9,1163.8c-0.8,0-1.5,0-2.3,0c11.9-53.8,23.8-107.7,35.7-161.5c0.6,0,1.2,0,1.7,0&#10;&#9;&#9;&#9;&#9;C1011.4,1056.1,999.6,1109.9,987.9,1163.8z" style="fill: rgb(101, 117, 44);"/>
		</g>
	</g>
	<g class="st38" style="opacity: 0.4;">
		<path class="st39" d="M1136,1152.2c-56.4,0-96.8-31.1-90-69.2c6.8-38.2,47.2-69.2,90-69.2c42.8,0,83.2,31.1,90,69.2&#10;&#9;&#9;&#9;C1232.8,1121.2,1192.4,1152.2,1136,1152.2z" style="fill: rgb(169, 199, 77);"/>
	</g>
	<g>
		<g>
			<path class="st39" d="M1136,1153c-57.1,0-98-31.4-91-70c7-38.6,47.8-70,91-70c43.2,0,84,31.4,91,70&#10;&#9;&#9;&#9;&#9;C1234,1121.6,1193.1,1153,1136,1153z M1136,1014.5c-42.4,0-82.3,30.7-89,68.5c-6.7,37.7,33.3,68.5,89,68.5&#10;&#9;&#9;&#9;&#9;c55.7,0,95.7-30.7,89-68.5C1218.3,1045.2,1178.4,1014.5,1136,1014.5z" style="fill: rgb(169, 199, 77);"/>
		</g>
		<g>
			<path class="st39" d="M1136,1137.6c-43.4,0-75.2-24.5-71-54.6c4.2-30.1,36.1-54.6,71-54.6c34.9,0,66.8,24.5,71,54.6&#10;&#9;&#9;&#9;&#9;C1211.2,1113.1,1179.4,1137.6,1136,1137.6z M1136,1029.9c-34,0-65,23.8-69,53.1c-4,29.3,27,53.1,69,53.1s73-23.8,69-53.1&#10;&#9;&#9;&#9;&#9;C1201,1053.7,1170,1029.9,1136,1029.9z" style="fill: rgb(169, 199, 77);"/>
		</g>
		<g>
			<path class="st39" d="M1136,1122.2c-30.3,0-53.2-17.6-51-39.2c2.2-21.6,25.1-39.2,51-39.2c25.9,0,48.8,17.6,51,39.2&#10;&#9;&#9;&#9;&#9;C1189.2,1104.6,1166.3,1122.2,1136,1122.2z M1136,1045.3c-25,0-47,16.9-49,37.7c-2,20.8,20,37.7,49,37.7c29,0,51-16.9,49-37.7&#10;&#9;&#9;&#9;&#9;C1183,1062.2,1161,1045.3,1136,1045.3z" style="fill: rgb(169, 199, 77);"/>
		</g>
		<g>
			<path class="st39" d="M1136,1106.8c-17.9,0-31.8-10.7-31-23.8c0.8-13.1,14.7-23.8,31-23.8c16.3,0,30.2,10.7,31,23.8&#10;&#9;&#9;&#9;&#9;C1167.8,1096.1,1153.9,1106.8,1136,1106.8z M1136,1060.7c-15.3,0-28.3,10-29,22.3c-0.7,12.3,12.3,22.3,29,22.3&#10;&#9;&#9;&#9;&#9;c16.7,0,29.7-10,29-22.3C1164.3,1070.7,1151.3,1060.7,1136,1060.7z" style="fill: rgb(169, 199, 77);"/>
		</g>
		<g>
			<path class="st40" d="M1146,1083c0.1,4.2-4.4,7.7-10,7.7c-5.6,0-10.1-3.4-10-7.7c0.1-4.2,4.6-7.7,10-7.7&#10;&#9;&#9;&#9;&#9;C1141.4,1075.3,1145.9,1078.8,1146,1083z" style="fill: rgb(235, 78, 66);"/>
		</g>
	</g>
</g><g>
	<g>
		<g>
			<path class="st41" d="M1029.8,1256.4v6.8c0,6.6-17.1,12-38.2,12c-21.1,0-38.2-5.4-38.2-12v-6.8H1029.8z" style="fill: rgb(165, 0, 153);"/>
			<path d="M 1029.700001 1256.400024 A 38.200001 12 0 0 1 991.5 1268.400024 A 38.200001 12 0 0 1 953.299999 1256.400024 A 38.200001 12 0 0 1 991.5 1244.400024 A 38.200001 12 0 0 1 1029.700001 1256.400024 Z" class="st42" style="fill: rgb(199, 0, 177);"/>
		</g>
		<g>
			<path class="st41" d="M1021.4,1303.7v6.8c0,6.6-17.1,12-38.2,12c-21.1,0-38.2-5.4-38.2-12v-6.8H1021.4z" style="fill: rgb(165, 0, 153);"/>
			<path d="M 1021.400013 1303.699951 A 38.200001 12 0 0 1 983.200012 1315.699951 A 38.200001 12 0 0 1 945.000011 1303.699951 A 38.200001 12 0 0 1 983.200012 1291.699951 A 38.200001 12 0 0 1 1021.400013 1303.699951 Z" class="st42" style="fill: rgb(199, 0, 177);"/>
		</g>
		<g>
			<path class="st41" d="M1013.1,1351v6.8c0,6.6-17.1,12-38.2,12c-21.1,0-38.2-5.4-38.2-12v-6.8H1013.1z" style="fill: rgb(165, 0, 153);"/>
			<path d="M 1013.100025 1351 A 38.200001 12 0 0 1 974.900024 1363 A 38.200001 12 0 0 1 936.700024 1351 A 38.200001 12 0 0 1 974.900024 1339 A 38.200001 12 0 0 1 1013.100025 1351 Z" class="st42" style="fill: rgb(199, 0, 177);"/>
		</g>
	</g>
	<g>
		<g>
			<path class="st43" d="M1242.2,1256.4v6.8c0,6.6,17.1,12,38.2,12s38.2-5.4,38.2-12v-6.8H1242.2z" style="fill: rgb(24, 88, 181);"/>
			<path d="M 1318.700001 1256.400024 A 38.200001 12 0 0 1 1280.5 1268.400024 A 38.200001 12 0 0 1 1242.299999 1256.400024 A 38.200001 12 0 0 1 1280.5 1244.400024 A 38.200001 12 0 0 1 1318.700001 1256.400024 Z" class="st37" style="fill: rgb(53, 106, 201);"/>
		</g>
		<g>
			<path class="st43" d="M1250.6,1303.7v6.8c0,6.6,17.1,12,38.2,12s38.2-5.4,38.2-12v-6.8H1250.6z" style="fill: rgb(24, 88, 181);"/>
			<path d="M 1327.00005 1303.699951 A 38.200001 12 0 0 1 1288.800049 1315.699951 A 38.200001 12 0 0 1 1250.600048 1303.699951 A 38.200001 12 0 0 1 1288.800049 1291.699951 A 38.200001 12 0 0 1 1327.00005 1303.699951 Z" class="st37" style="fill: rgb(53, 106, 201);"/>
		</g>
		<g>
			<path class="st43" d="M1258.9,1351v6.8c0,6.6,17.1,12,38.2,12c21.1,0,38.2-5.4,38.2-12v-6.8H1258.9z" style="fill: rgb(24, 88, 181);"/>
			<path d="M 1335.299976 1351 A 38.200001 12 0 0 1 1297.099976 1363 A 38.200001 12 0 0 1 1258.899975 1351 A 38.200001 12 0 0 1 1297.099976 1339 A 38.200001 12 0 0 1 1335.299976 1351 Z" class="st37" style="fill: rgb(53, 106, 201);"/>
		</g>
	</g>
	<g>
		<g>
			<path class="st44" d="M1097.8,1256.4v6.8c0,6.6,17.1,12,38.2,12c21.1,0,38.2-5.4,38.2-12v-6.8H1097.8z" style="fill: rgb(193, 28, 20);"/>
			<path d="M 1174.200001 1256.400024 A 38.200001 12 0 0 1 1136 1268.400024 A 38.200001 12 0 0 1 1097.799999 1256.400024 A 38.200001 12 0 0 1 1136 1244.400024 A 38.200001 12 0 0 1 1174.200001 1256.400024 Z" class="st45" style="fill: rgb(211, 56, 40);"/>
		</g>
		<g>
			<path class="st44" d="M1097.8,1303.7v6.8c0,6.6,17.1,12,38.2,12c21.1,0,38.2-5.4,38.2-12v-6.8H1097.8z" style="fill: rgb(193, 28, 20);"/>
			<path d="M 1174.200001 1303.699951 A 38.200001 12 0 0 1 1136 1315.699951 A 38.200001 12 0 0 1 1097.799999 1303.699951 A 38.200001 12 0 0 1 1136 1291.699951 A 38.200001 12 0 0 1 1174.200001 1303.699951 Z" class="st45" style="fill: rgb(211, 56, 40);"/>
		</g>
		<g>
			<path class="st44" d="M1097.8,1351v6.8c0,6.6,17.1,12,38.2,12c21.1,0,38.2-5.4,38.2-12v-6.8H1097.8z" style="fill: rgb(193, 28, 20);"/>
			<path d="M 1174.200001 1351 A 38.200001 12 0 0 1 1136 1363 A 38.200001 12 0 0 1 1097.799999 1351 A 38.200001 12 0 0 1 1136 1339 A 38.200001 12 0 0 1 1174.200001 1351 Z" class="st45" style="fill: rgb(211, 56, 40);"/>
		</g>
	</g>
</g><g>
	<path d="M 2192.89990234375 956.7999877929688 L 2162.10009765625 952.0999755859375 L 2169.800048828125 941.7000122070312 L 2159.300048828125 949.2999877929688 L 2154.60009765625 918.5999755859375 L 2149.89990234375 949.2999877929688 L 2139.39990234375 941.7000122070312 L 2147.10009765625 952.0999755859375 L 2116.300048828125 956.7999877929688 L 2147.10009765625 961.5999755859375 L 2139.39990234375 972 L 2149.89990234375 964.2999877929688 L 2154.60009765625 995.0999755859375 L 2159.300048828125 964.2999877929688 L 2169.800048828125 972 L 2162.10009765625 961.5999755859375 Z" class="st2" style="fill: rgb(255, 255, 255);"/>
</g><g>
	<path d="M 105.9000015258789 746.9000244140625 L 87.5 721.7999877929688 L 100.30000305175781 719.7999877929688 L 87.5 717.7999877929688 L 105.9000015258789 692.7000122070312 L 80.80000305175781 711.0999755859375 L 78.9000015258789 698.2999877929688 L 76.9000015258789 711.0999755859375 L 51.79999923706055 692.7000122070312 L 70.19999694824219 717.7999877929688 L 57.400001525878906 719.7999877929688 L 70.19999694824219 721.7999877929688 L 51.79999923706055 746.9000244140625 L 76.9000015258789 728.4000244140625 L 78.9000015258789 741.2999877929688 L 80.80000305175781 728.4000244140625 Z" class="st2" style="fill: rgb(255, 255, 255);"/>
</g><g>
	<path d="M 1370.199951171875 683.4000244140625 L 1401 688.0999755859375 L 1393.300048828125 698.5999755859375 L 1403.800048828125 690.9000244140625 L 1408.5 721.7000122070312 L 1413.199951171875 690.9000244140625 L 1423.699951171875 698.5999755859375 L 1416 688.0999755859375 L 1446.800048828125 683.4000244140625 L 1416 678.7000122070312 L 1423.699951171875 668.2000122070312 L 1413.199951171875 675.9000244140625 L 1408.5 645.0999755859375 L 1403.800048828125 675.9000244140625 L 1393.300048828125 668.2000122070312 L 1401 678.7000122070312 Z" class="st2" style="fill: rgb(255, 255, 255);"/>
</g><g>
	<path d="M 954.4000244140625 518.7000122070312 L 985.2000122070312 523.4000244140625 L 977.5 533.9000244140625 L 988 526.2000122070312 L 992.7000122070312 557 L 997.4000244140625 526.2000122070312 L 1007.9000244140625 533.9000244140625 L 1000.2000122070312 523.4000244140625 L 1031 518.7000122070312 L 1000.2000122070312 514 L 1007.9000244140625 503.5 L 997.4000244140625 511.20001220703125 L 992.7000122070312 480.3999938964844 L 988 511.20001220703125 L 977.5 503.5 L 985.2000122070312 514 Z" class="st2" style="fill: rgb(255, 255, 255);"/>
</g><g>
	<path d="M 511.20001220703125 553.7999877929688 L 529.5999755859375 578.9000244140625 L 516.7999877929688 580.9000244140625 L 529.5999755859375 582.7999877929688 L 511.20001220703125 607.9000244140625 L 536.2999877929688 589.5 L 538.2999877929688 602.2999877929688 L 540.2000122070312 589.5 L 565.2999877929688 607.9000244140625 L 546.9000244140625 582.7999877929688 L 559.7000122070312 580.9000244140625 L 546.9000244140625 578.9000244140625 L 565.2999877929688 553.7999877929688 L 540.2000122070312 572.2000122070312 L 538.2999877929688 559.4000244140625 L 536.2999877929688 572.2000122070312 Z" class="st2" style="fill: rgb(255, 255, 255);"/>
</g><g>
	<path d="M 2137.39990234375 422.70001220703125 L 2168.199951171875 427.3999938964844 L 2160.5 437.8999938964844 L 2171 430.20001220703125 L 2175.699951171875 461 L 2180.5 430.20001220703125 L 2190.89990234375 437.8999938964844 L 2183.199951171875 427.3999938964844 L 2214 422.70001220703125 L 2183.199951171875 418 L 2190.89990234375 407.5 L 2180.5 415.20001220703125 L 2175.699951171875 384.3999938964844 L 2171 415.20001220703125 L 2160.5 407.5 L 2168.199951171875 418 Z" class="st2" style="fill: rgb(255, 255, 255);"/>
</g><g>
	<g>
		
			<linearGradient id="SVGID_22_" gradientUnits="userSpaceOnUse" x1="1693.0181" y1="419.1215" x2="1912.5585" y2="665.0551" gradientTransform="matrix(0.9301 0.3673 -0.3673 0.9301 370.1671 -456.8249)">
			<stop offset="0" style="stop-color:#FACB00"/>
			<stop offset="1" style="stop-color:#F28B00"/>
		</linearGradient>
		<path d="M 1951.399994 639.400024 A 129.399994 129.399994 0 0 1 1822 768.800018 A 129.399994 129.399994 0 0 1 1692.600006 639.400024 A 129.399994 129.399994 0 0 1 1822 510.000031 A 129.399994 129.399994 0 0 1 1951.399994 639.400024 Z" class="st46" style="fill: url('#SVGID_22_');"/>
		<g>
			
				<linearGradient id="SVGID_23_" gradientUnits="userSpaceOnUse" x1="1707.7079" y1="443.6926" x2="1745.6714" y2="479.4231" gradientTransform="matrix(0.9301 0.3673 -0.3673 0.9301 370.1671 -456.8249)">
				<stop offset="0" style="stop-color:#FAF600"/>
				<stop offset="1" style="stop-color:#F28B00"/>
			</linearGradient>
			<path class="st47" d="M1871.9,524.6c32.2,12.7,56.5,37,70,66.1c-12.9-31.6-38.1-58.1-72.3-71.6c-66.5-26.3-141.6,6.4-167.9,72.8&#10;&#9;&#9;&#9;&#9;c-13.5,34.2-11.4,70.8,2.9,101.8c-12.1-29.8-13.2-64-0.5-96.3C1730.3,530.9,1805.5,498.3,1871.9,524.6z" style="fill: url('#SVGID_23_');"/>
		</g>
		<g>
			
				<linearGradient id="SVGID_24_" gradientUnits="userSpaceOnUse" x1="1751.8462" y1="374.8637" x2="1735.8419" y2="358.9531" gradientTransform="matrix(0.9301 0.3673 -0.3673 0.9301 370.1671 -456.8249)">
				<stop offset="0" style="stop-color:#FADD00"/>
				<stop offset="1" style="stop-color:#F27200"/>
			</linearGradient>
			<path class="st48" d="M1875.7,534.2c-0.4,2.4-7.8,3-16.3,1.4s-15.2-4.8-14.7-7.2c0.4-2.4,7.8-3,16.3-1.4&#10;&#9;&#9;&#9;&#9;C1869.5,528.6,1876.1,531.8,1875.7,534.2z" style="fill: url('#SVGID_24_');"/>
			
				<linearGradient id="SVGID_25_" gradientUnits="userSpaceOnUse" x1="1690.9696" y1="397.7449" x2="1676.7437" y2="388.0113" gradientTransform="matrix(0.9301 0.3673 -0.3673 0.9301 370.1671 -456.8249)">
				<stop offset="0" style="stop-color:#FADD00"/>
				<stop offset="1" style="stop-color:#F27200"/>
			</linearGradient>
			<path class="st49" d="M1805.8,532c0,2.4-4.6,4.4-10.3,4.5c-5.7,0.1-10.3-1.8-10.4-4.3c0-2.4,4.6-4.4,10.3-4.5&#10;&#9;&#9;&#9;&#9;C1801.1,527.7,1805.7,529.6,1805.8,532z" style="fill: url('#SVGID_25_');"/>
			
				<linearGradient id="SVGID_26_" gradientUnits="userSpaceOnUse" x1="1913.5327" y1="524.0121" x2="1680.0132" y2="333.7365" gradientTransform="matrix(0.9301 0.3673 -0.3673 0.9301 370.1671 -456.8249)">
				<stop offset="0" style="stop-color:#FADD00"/>
				<stop offset="1" style="stop-color:#F27200"/>
			</linearGradient>
			<path class="st50" d="M1891.8,605.2c0,2.4-2.7,4.4-6.1,4.5s-6.2-1.9-6.2-4.3c0-2.4,2.7-4.4,6.1-4.5S1891.8,602.8,1891.8,605.2z" style="fill: url('#SVGID_26_');"/>
			
				<linearGradient id="SVGID_27_" gradientUnits="userSpaceOnUse" x1="1739.9113" y1="423.0823" x2="1726.5221" y2="412.9761" gradientTransform="matrix(0.9301 0.3673 -0.3673 0.9301 370.1671 -456.8249)">
				<stop offset="0" style="stop-color:#FADD00"/>
				<stop offset="1" style="stop-color:#F27200"/>
			</linearGradient>
			<path class="st51" d="M1838.4,573.1c-1.2,2.9-6.5,3.3-11.7,1c-5.2-2.3-8.4-6.4-7.2-9.3c1.2-2.9,6.5-3.3,11.7-1&#10;&#9;&#9;&#9;&#9;C1836.4,566.1,1839.6,570.2,1838.4,573.1z" style="fill: url('#SVGID_27_');"/>
			
				<linearGradient id="SVGID_28_" gradientUnits="userSpaceOnUse" x1="1850.3275" y1="748.5878" x2="1616.8099" y2="558.3139" gradientTransform="matrix(1.0517 0.1017 -0.1335 1.2318 -80.6779 -567.0741)">
				<stop offset="0" style="stop-color:#FADD00"/>
				<stop offset="1" style="stop-color:#F27200"/>
			</linearGradient>
			<path class="st52" d="M1789.2,560c-0.5,3.8-5.8,6.2-11.8,5.4s-10.4-4.6-9.8-8.4c0.5-3.8,5.8-6.2,11.8-5.4&#10;&#9;&#9;&#9;&#9;C1785.4,552.5,1789.8,556.2,1789.2,560z" style="fill: url('#SVGID_28_');"/>
			
				<linearGradient id="SVGID_29_" gradientUnits="userSpaceOnUse" x1="1821.9099" y1="793.3255" x2="1588.3947" y2="603.0535" gradientTransform="matrix(1.1718 0.2069 -0.2803 1.4527 -68.4525 -1029.7546)">
				<stop offset="0" style="stop-color:#FADD00"/>
				<stop offset="1" style="stop-color:#F27200"/>
			</linearGradient>
			<path class="st53" d="M1905.1,574.6c-1,4.5-7.2,6.9-13.8,5.5c-6.6-1.5-11.2-6.3-10.2-10.8c1-4.5,7.2-6.9,13.8-5.5&#10;&#9;&#9;&#9;&#9;C1901.5,565.2,1906.1,570.1,1905.1,574.6z" style="fill: url('#SVGID_29_');"/>
			
				<linearGradient id="SVGID_30_" gradientUnits="userSpaceOnUse" x1="1758.1741" y1="452.4045" x2="1746.4984" y2="442.231" gradientTransform="matrix(0.9301 0.3673 -0.3673 0.9301 370.1671 -456.8249)">
				<stop offset="0" style="stop-color:#FADD00"/>
				<stop offset="1" style="stop-color:#F27200"/>
			</linearGradient>
			<path class="st54" d="M1847.6,605.8c-0.5,3-6.1,4.4-12.5,3.2s-11-4.5-10.5-7.5c0.5-3,6.1-4.4,12.5-3.2&#10;&#9;&#9;&#9;&#9;C1843.4,599.4,1848.1,602.8,1847.6,605.8z" style="fill: url('#SVGID_30_');"/>
			
				<linearGradient id="SVGID_31_" gradientUnits="userSpaceOnUse" x1="1693.6797" y1="480.9029" x2="1672.7106" y2="468.1169" gradientTransform="matrix(0.9301 0.3673 -0.3673 0.9301 370.1671 -456.8249)">
				<stop offset="0" style="stop-color:#FADD00"/>
				<stop offset="1" style="stop-color:#F27200"/>
			</linearGradient>
			<path class="st55" d="M1776.8,605.9c0,3-5.7,5.5-12.7,5.6c-7.1,0.1-12.8-2.3-12.9-5.3c0-3,5.7-5.5,12.7-5.6&#10;&#9;&#9;&#9;&#9;C1771,600.6,1776.7,602.9,1776.8,605.9z" style="fill: url('#SVGID_31_');"/>
			
				<linearGradient id="SVGID_32_" gradientUnits="userSpaceOnUse" x1="1879.8809" y1="565.3104" x2="1646.3627" y2="375.0359" gradientTransform="matrix(0.9301 0.3673 -0.3673 0.9301 370.1671 -456.8249)">
				<stop offset="0" style="stop-color:#FADD00"/>
				<stop offset="1" style="stop-color:#F27200"/>
			</linearGradient>
			<path class="st56" d="M1883.6,696.9c0,3-3.3,5.5-7.5,5.5s-7.6-2.3-7.7-5.3c0-3,3.3-5.5,7.5-5.5&#10;&#9;&#9;&#9;&#9;C1880.1,691.5,1883.5,693.9,1883.6,696.9z" style="fill: url('#SVGID_32_');"/>
			
				<linearGradient id="SVGID_33_" gradientUnits="userSpaceOnUse" x1="1763.3831" y1="592.4708" x2="1529.854" y2="402.1876" gradientTransform="matrix(0.8334 0.325 -0.3708 0.9286 614.1502 -350.0516)">
				<stop offset="0" style="stop-color:#FADD00"/>
				<stop offset="1" style="stop-color:#F27200"/>
			</linearGradient>
			<path class="st57" d="M1814.6,655.8c-1.5,3.5-7.5,4.4-13.3,1.8c-5.8-2.5-9.2-7.5-7.7-11s7.5-4.4,13.3-1.8&#10;&#9;&#9;&#9;&#9;C1812.7,647.3,1816.2,652.3,1814.6,655.8z" style="fill: url('#SVGID_33_');"/>
			
				<linearGradient id="SVGID_34_" gradientUnits="userSpaceOnUse" x1="1488.1315" y1="790.178" x2="1254.6234" y2="599.912" gradientTransform="matrix(0.8057 6.730000e-02 -0.1423 1.2306 631.1422 -467.9554)">
				<stop offset="0" style="stop-color:#FADD00"/>
				<stop offset="1" style="stop-color:#F27200"/>
			</linearGradient>
			<path class="st58" d="M1749.8,639.9c-0.7,4.7-5.8,7.9-11.4,7.2c-5.7-0.8-9.7-5.3-9.1-10c0.7-4.7,5.8-7.9,11.4-7.2&#10;&#9;&#9;&#9;&#9;C1746.4,630.6,1750.4,635.1,1749.8,639.9z" style="fill: url('#SVGID_34_');"/>
			
				<linearGradient id="SVGID_35_" gradientUnits="userSpaceOnUse" x1="1465.1141" y1="812.339" x2="1231.5918" y2="622.0612" gradientTransform="matrix(0.9239 0.1515 -0.2893 1.4507 705.5948 -857.3617)">
				<stop offset="0" style="stop-color:#FADD00"/>
				<stop offset="1" style="stop-color:#F27200"/>
			</linearGradient>
			<path class="st59" d="M1893.5,657.4c-1.2,5.6-7.5,8.9-14,7.5c-6.5-1.4-10.7-7.1-9.4-12.7c1.2-5.6,7.5-8.9,14-7.5&#10;&#9;&#9;&#9;&#9;C1890.6,646.1,1894.8,651.8,1893.5,657.4z" style="fill: url('#SVGID_35_');"/>
			
				<linearGradient id="SVGID_36_" gradientUnits="userSpaceOnUse" x1="1926.8303" y1="507.6918" x2="1693.312" y2="317.4173" gradientTransform="matrix(0.9301 0.3673 -0.3673 0.9301 370.1671 -456.8249)">
				<stop offset="0" style="stop-color:#FADD00"/>
				<stop offset="1" style="stop-color:#F27200"/>
			</linearGradient>
			<path class="st60" d="M1936.6,639.5c0,3-3.3,5.5-7.5,5.5s-7.6-2.3-7.7-5.3c0-3,3.3-5.5,7.5-5.5&#10;&#9;&#9;&#9;&#9;C1933.2,634.1,1936.6,636.5,1936.6,639.5z" style="fill: url('#SVGID_36_');"/>
			
				<linearGradient id="SVGID_37_" gradientUnits="userSpaceOnUse" x1="1502.9313" y1="772.0124" x2="1269.423" y2="581.746" gradientTransform="matrix(0.8057 6.730000e-02 -0.1423 1.2306 631.1422 -467.9554)">
				<stop offset="0" style="stop-color:#FADD00"/>
				<stop offset="1" style="stop-color:#F27200"/>
			</linearGradient>
			<path class="st61" d="M1842.5,743c-0.5,3.7-4.5,6.2-8.9,5.6c-4.4-0.6-7.6-4.1-7.1-7.8c0.5-3.7,4.5-6.2,8.9-5.6&#10;&#9;&#9;&#9;&#9;C1839.8,735.8,1843,739.3,1842.5,743z" style="fill: url('#SVGID_37_');"/>
			
				<linearGradient id="SVGID_38_" gradientUnits="userSpaceOnUse" x1="1497.954" y1="778.1224" x2="1264.4468" y2="587.8569" gradientTransform="matrix(0.8057 6.730000e-02 -0.1423 1.2306 631.1422 -467.9554)">
				<stop offset="0" style="stop-color:#FADD00"/>
				<stop offset="1" style="stop-color:#F27200"/>
			</linearGradient>
			<path class="st62" d="M1813.6,706.5c-0.8,5.8-7.1,9.8-14.1,8.8c-7-1-12-6.5-11.2-12.3c0.8-5.8,7.1-9.8,14.1-8.8&#10;&#9;&#9;&#9;&#9;C1809.5,695.1,1814.5,700.6,1813.6,706.5z" style="fill: url('#SVGID_38_');"/>
			
				<linearGradient id="SVGID_39_" gradientUnits="userSpaceOnUse" x1="1837.4482" y1="967.7717" x2="1603.9379" y2="777.5037" gradientTransform="matrix(0.7822 0.2046 -0.3515 1.1879 610.9786 -897.6498)">
				<stop offset="0" style="stop-color:#FADD00"/>
				<stop offset="1" style="stop-color:#F27200"/>
			</linearGradient>
			<path class="st63" d="M1744.4,696.8c-1.2,3.9-6,5.8-10.6,4.3s-7.3-5.8-6.1-9.7c1.2-3.9,6-5.8,10.6-4.3&#10;&#9;&#9;&#9;&#9;C1742.9,688.6,1745.6,692.9,1744.4,696.8z" style="fill: url('#SVGID_39_');"/>
			
				<linearGradient id="SVGID_40_" gradientUnits="userSpaceOnUse" x1="1443.0992" y1="839.3595" x2="1209.577" y2="649.0818" gradientTransform="matrix(0.9239 0.1515 -0.2893 1.4507 705.5948 -857.3617)">
				<stop offset="0" style="stop-color:#FADD00"/>
				<stop offset="1" style="stop-color:#F27200"/>
			</linearGradient>
			<path class="st64" d="M1885.2,737c-0.9,4.1-5.5,6.5-10.2,5.5c-4.7-1.1-7.8-5.2-6.9-9.3c0.9-4.1,5.5-6.5,10.2-5.5&#10;&#9;&#9;&#9;&#9;C1883,728.7,1886.1,732.9,1885.2,737z" style="fill: url('#SVGID_40_');"/>
		</g>
		<g>
			
				<linearGradient id="SVGID_41_" gradientUnits="userSpaceOnUse" x1="1681.1094" y1="315.8116" x2="1966.8539" y2="551.6033" gradientTransform="matrix(0.9301 0.3673 -0.3673 0.9301 370.1671 -456.8249)">
				<stop offset="0" style="stop-color:#FACB00"/>
				<stop offset="1" style="stop-color:#F28B00"/>
			</linearGradient>
			<path class="st65" d="M1875.1,533c-0.4,2.4-7.8,3-16.3,1.4c-8.6-1.6-15.2-4.8-14.7-7.2c0.4-2.4,7.8-3,16.3-1.4&#10;&#9;&#9;&#9;&#9;C1869,527.4,1875.6,530.6,1875.1,533z" style="fill: url('#SVGID_41_');"/>
			
				<linearGradient id="SVGID_42_" gradientUnits="userSpaceOnUse" x1="1644.8196" y1="359.7893" x2="1930.5636" y2="595.5807" gradientTransform="matrix(0.9301 0.3673 -0.3673 0.9301 370.1671 -456.8249)">
				<stop offset="0" style="stop-color:#FACB00"/>
				<stop offset="1" style="stop-color:#F28B00"/>
			</linearGradient>
			<path class="st66" d="M1805.2,530.8c0,2.4-4.6,4.4-10.3,4.5c-5.7,0.1-10.3-1.8-10.4-4.3c0-2.4,4.6-4.4,10.3-4.5&#10;&#9;&#9;&#9;&#9;C1800.5,526.4,1805.2,528.3,1805.2,530.8z" style="fill: url('#SVGID_42_');"/>
			
				<linearGradient id="SVGID_43_" gradientUnits="userSpaceOnUse" x1="1672.5562" y1="326.1764" x2="1958.2994" y2="561.9672" gradientTransform="matrix(0.9301 0.3673 -0.3673 0.9301 370.1671 -456.8249)">
				<stop offset="0" style="stop-color:#FACB00"/>
				<stop offset="1" style="stop-color:#F28B00"/>
			</linearGradient>
			<path class="st67" d="M1891.2,604c0,2.4-2.7,4.4-6.1,4.5c-3.4,0-6.2-1.9-6.2-4.3c0-2.4,2.7-4.4,6.1-4.5S1891.2,601.6,1891.2,604z&#10;&#9;&#9;&#9;&#9;" style="fill: url('#SVGID_43_');"/>
			
				<linearGradient id="SVGID_44_" gradientUnits="userSpaceOnUse" x1="1652.1302" y1="350.9298" x2="1937.8741" y2="586.721" gradientTransform="matrix(0.9301 0.3673 -0.3673 0.9301 370.1671 -456.8249)">
				<stop offset="0" style="stop-color:#FACB00"/>
				<stop offset="1" style="stop-color:#F28B00"/>
			</linearGradient>
			<path class="st68" d="M1837.8,571.8c-1.2,2.9-6.5,3.3-11.7,1c-5.2-2.3-8.4-6.4-7.2-9.3c1.2-2.9,6.5-3.3,11.7-1&#10;&#9;&#9;&#9;&#9;C1835.8,564.8,1839.1,569,1837.8,571.8z" style="fill: url('#SVGID_44_');"/>
			
				<linearGradient id="SVGID_45_" gradientUnits="userSpaceOnUse" x1="1627.2253" y1="381.1107" x2="1912.9688" y2="616.9016" gradientTransform="matrix(0.9301 0.3673 -0.3673 0.9301 370.1671 -456.8249)">
				<stop offset="0" style="stop-color:#FACB00"/>
				<stop offset="1" style="stop-color:#F28B00"/>
			</linearGradient>
			<path class="st69" d="M1788.7,558.8c-0.5,3.8-5.8,6.2-11.8,5.4c-6-0.8-10.4-4.6-9.8-8.4c0.5-3.8,5.8-6.2,11.8-5.4&#10;&#9;&#9;&#9;&#9;S1789.2,555,1788.7,558.8z" style="fill: url('#SVGID_45_');"/>
			
				<linearGradient id="SVGID_46_" gradientUnits="userSpaceOnUse" x1="1686.9849" y1="308.6917" x2="1972.7294" y2="544.4834" gradientTransform="matrix(0.9301 0.3673 -0.3673 0.9301 370.1671 -456.8249)">
				<stop offset="0" style="stop-color:#FACB00"/>
				<stop offset="1" style="stop-color:#F28B00"/>
			</linearGradient>
			<path class="st70" d="M1904.6,573.3c-1,4.5-7.2,6.9-13.8,5.5c-6.6-1.5-11.2-6.3-10.2-10.8c1-4.5,7.2-6.9,13.8-5.5&#10;&#9;&#9;&#9;&#9;C1901,564,1905.6,568.9,1904.6,573.3z" style="fill: url('#SVGID_46_');"/>
			
				<linearGradient id="SVGID_47_" gradientUnits="userSpaceOnUse" x1="1645.6764" y1="358.7499" x2="1931.4216" y2="594.5422" gradientTransform="matrix(0.9301 0.3673 -0.3673 0.9301 370.1671 -456.8249)">
				<stop offset="0" style="stop-color:#FACB00"/>
				<stop offset="1" style="stop-color:#F28B00"/>
			</linearGradient>
			<path class="st71" d="M1847.3,604.3c-0.5,3-6.1,4.4-12.5,3.2c-6.3-1.2-11-4.5-10.5-7.5c0.5-3,6.1-4.4,12.5-3.2&#10;&#9;&#9;&#9;&#9;C1843.1,598,1847.8,601.3,1847.3,604.3z" style="fill: url('#SVGID_47_');"/>
			
				<linearGradient id="SVGID_48_" gradientUnits="userSpaceOnUse" x1="1604.5286" y1="408.6145" x2="1890.2733" y2="644.4064" gradientTransform="matrix(0.9301 0.3673 -0.3673 0.9301 370.1671 -456.8249)">
				<stop offset="0" style="stop-color:#FACB00"/>
				<stop offset="1" style="stop-color:#F28B00"/>
			</linearGradient>
			<path class="st72" d="M1776.1,604.4c0,3-5.7,5.5-12.7,5.6c-7.1,0.1-12.8-2.3-12.9-5.3c0-3,5.7-5.5,12.7-5.6&#10;&#9;&#9;&#9;&#9;C1770.3,599,1776.1,601.4,1776.1,604.4z" style="fill: url('#SVGID_48_');"/>
			
				<linearGradient id="SVGID_49_" gradientUnits="userSpaceOnUse" x1="1638.9658" y1="366.8808" x2="1924.7101" y2="602.6723" gradientTransform="matrix(0.9301 0.3673 -0.3673 0.9301 370.1671 -456.8249)">
				<stop offset="0" style="stop-color:#FACB00"/>
				<stop offset="1" style="stop-color:#F28B00"/>
			</linearGradient>
			<path class="st73" d="M1882.9,695.3c0,3-3.3,5.5-7.5,5.5s-7.6-2.3-7.7-5.3c0-3,3.3-5.5,7.5-5.5&#10;&#9;&#9;&#9;&#9;C1879.4,689.9,1882.9,692.3,1882.9,695.3z" style="fill: url('#SVGID_49_');"/>
			
				<linearGradient id="SVGID_50_" gradientUnits="userSpaceOnUse" x1="1686.176" y1="309.6709" x2="1971.9202" y2="545.4625" gradientTransform="matrix(0.9301 0.3673 -0.3673 0.9301 370.1671 -456.8249)">
				<stop offset="0" style="stop-color:#FACB00"/>
				<stop offset="1" style="stop-color:#F28B00"/>
			</linearGradient>
			<path class="st74" d="M1936,638c0,3-3.3,5.5-7.5,5.5c-4.2,0.1-7.6-2.3-7.7-5.3c0-3,3.3-5.5,7.5-5.5S1935.9,635,1936,638z" style="fill: url('#SVGID_50_');"/>
			
				<linearGradient id="SVGID_51_" gradientUnits="userSpaceOnUse" x1="1613.0819" y1="398.2493" x2="1898.8259" y2="634.0406" gradientTransform="matrix(0.9301 0.3673 -0.3673 0.9301 370.1671 -456.8249)">
				<stop offset="0" style="stop-color:#FACB00"/>
				<stop offset="1" style="stop-color:#F28B00"/>
			</linearGradient>
			<path class="st75" d="M1814.1,654.3c-1.5,3.5-7.5,4.4-13.3,1.8c-5.8-2.5-9.2-7.5-7.7-11c1.5-3.5,7.5-4.4,13.3-1.8&#10;&#9;&#9;&#9;&#9;C1812.2,645.9,1815.6,650.8,1814.1,654.3z" style="fill: url('#SVGID_51_');"/>
			
				<linearGradient id="SVGID_52_" gradientUnits="userSpaceOnUse" x1="1581.062" y1="437.0529" x2="1866.8053" y2="672.8437" gradientTransform="matrix(0.9301 0.3673 -0.3673 0.9301 370.1671 -456.8249)">
				<stop offset="0" style="stop-color:#FACB00"/>
				<stop offset="1" style="stop-color:#F28B00"/>
			</linearGradient>
			<path class="st76" d="M1749.3,638.4c-0.7,4.7-5.8,7.9-11.4,7.2c-5.7-0.8-9.7-5.3-9.1-10c0.7-4.7,5.8-7.9,11.4-7.2&#10;&#9;&#9;&#9;&#9;C1745.9,629.1,1750,633.6,1749.3,638.4z" style="fill: url('#SVGID_52_');"/>
			
				<linearGradient id="SVGID_53_" gradientUnits="userSpaceOnUse" x1="1602.0789" y1="411.5847" x2="1887.8219" y2="647.3753" gradientTransform="matrix(0.9301 0.3673 -0.3673 0.9301 370.1671 -456.8249)">
				<stop offset="0" style="stop-color:#FACB00"/>
				<stop offset="1" style="stop-color:#F28B00"/>
			</linearGradient>
			<path class="st77" d="M1842.1,741.9c-0.5,3.7-4.5,6.2-8.9,5.6c-4.4-0.6-7.6-4.1-7.1-7.8c0.5-3.7,4.5-6.2,8.9-5.6&#10;&#9;&#9;&#9;&#9;C1839.5,734.6,1842.7,738.1,1842.1,741.9z" style="fill: url('#SVGID_53_');"/>
			
				<linearGradient id="SVGID_54_" gradientUnits="userSpaceOnUse" x1="1594.9655" y1="420.2046" x2="1880.709" y2="655.9956" gradientTransform="matrix(0.9301 0.3673 -0.3673 0.9301 370.1671 -456.8249)">
				<stop offset="0" style="stop-color:#FACB00"/>
				<stop offset="1" style="stop-color:#F28B00"/>
			</linearGradient>
			<path class="st78" d="M1813.1,704.6c-0.8,5.8-7.1,9.8-14.1,8.8c-7-1-12-6.5-11.2-12.3c0.8-5.8,7.1-9.8,14.1-8.8&#10;&#9;&#9;&#9;&#9;C1808.9,693.3,1813.9,698.8,1813.1,704.6z" style="fill: url('#SVGID_54_');"/>
			
				<linearGradient id="SVGID_55_" gradientUnits="userSpaceOnUse" x1="1562.1106" y1="460.0193" x2="1847.853" y2="695.8094" gradientTransform="matrix(0.9301 0.3673 -0.3673 0.9301 370.1671 -456.8249)">
				<stop offset="0" style="stop-color:#FACB00"/>
				<stop offset="1" style="stop-color:#F28B00"/>
			</linearGradient>
			<path class="st79" d="M1744.2,695.4c-1.2,3.9-6,5.8-10.6,4.3s-7.3-5.8-6.1-9.7c1.2-3.9,6-5.8,10.6-4.3&#10;&#9;&#9;&#9;&#9;C1742.7,687.3,1745.4,691.6,1744.2,695.4z" style="fill: url('#SVGID_55_');"/>
			
				<linearGradient id="SVGID_56_" gradientUnits="userSpaceOnUse" x1="1655.3289" y1="347.0537" x2="1941.0715" y2="582.844" gradientTransform="matrix(0.9301 0.3673 -0.3673 0.9301 370.1671 -456.8249)">
				<stop offset="0" style="stop-color:#FACB00"/>
				<stop offset="1" style="stop-color:#F28B00"/>
			</linearGradient>
			<path class="st80" d="M1893.1,655.9c-1.2,5.6-7.5,8.9-14,7.5c-6.5-1.4-10.7-7.1-9.4-12.7c1.2-5.6,7.5-8.9,14-7.5&#10;&#9;&#9;&#9;&#9;C1890.1,644.6,1894.3,650.3,1893.1,655.9z" style="fill: url('#SVGID_56_');"/>
			
				<linearGradient id="SVGID_57_" gradientUnits="userSpaceOnUse" x1="1627.6462" y1="380.5999" x2="1913.3894" y2="616.3906" gradientTransform="matrix(0.9301 0.3673 -0.3673 0.9301 370.1671 -456.8249)">
				<stop offset="0" style="stop-color:#FACB00"/>
				<stop offset="1" style="stop-color:#F28B00"/>
			</linearGradient>
			<path class="st81" d="M1884.8,735.9c-0.9,4.1-5.5,6.5-10.2,5.5c-4.7-1.1-7.8-5.2-6.9-9.3c0.9-4.1,5.5-6.5,10.2-5.5&#10;&#9;&#9;&#9;&#9;C1882.7,727.6,1885.8,731.8,1884.8,735.9z" style="fill: url('#SVGID_57_');"/>
		</g>
	</g>
	
		<linearGradient id="SVGID_58_" gradientUnits="userSpaceOnUse" x1="1753.0459" y1="535.0797" x2="1753.0459" y2="463.4529" gradientTransform="matrix(0.9301 0.3673 -0.3673 0.9301 370.1671 -456.8249)">
		<stop offset="0" style="stop-color:#FACB00"/>
		<stop offset="1" style="stop-color:#F28B00"/>
	</linearGradient>
	<path class="st82" d="M2043.6,727c-7.1,17.9-56.9,16.2-125.4-1c-34.8-8.7-74.3-21.5-115.5-37.8c-41.2-16.3-78.8-34-110.2-51.3&#10;&#9;&#9;c-61.8-34.2-99.3-67.1-92.2-84.9c7.1-17.9,56.9-16.2,125.4,1c-2.5,2.8-4.9,5.7-7.1,8.7c-40.1-6.8-68.1-4.6-73.1,8.2&#10;&#9;&#9;c-5,12.8,13.8,33.5,47.8,55.9c28.4,18.8,67.5,38.8,111.9,56.3c44.4,17.5,86.6,29.6,120.2,35.3c40.1,6.8,68.1,4.6,73.1-8.2&#10;&#9;&#9;c5.1-12.8-13.8-33.5-47.8-55.9c0.4-3.7,0.6-7.5,0.7-11.2C2013.2,676.2,2050.7,709.1,2043.6,727z" style="fill: url('#SVGID_58_');"/>
</g><g>
	<path d="M 514.200012 224 A 33 80.5 0 0 1 481.200012 304.5 A 33 80.5 0 0 1 448.200012 224 A 33 80.5 0 0 1 481.200012 143.5 A 33 80.5 0 0 1 514.200012 224 Z" transform="matrix(0.6657 -0.7462 0.7462 0.6657 -6.2634 433.9542)" class="st31" style="fill: rgb(70, 85, 142);"/>
	
		<path d="M 1871.300049 225 A 80.5 33 0 0 1 1790.800049 258 A 80.5 33 0 0 1 1710.300049 225 A 80.5 33 0 0 1 1790.800049 192 A 80.5 33 0 0 1 1871.300049 225 Z" transform="matrix(0.7462 -0.6657 0.6657 0.7462 304.6973 1249.2041)" class="st31" style="fill: rgb(70, 85, 142);"/>
</g><g>
	<g>
		<g>
			<path class="st83" d="M1271.4,1691.7c-31.8,72.3,15.7,155.1,84.9,176.8c69.2,21.7,82.8-107.2,82.8-107.2L1271.4,1691.7z" style="fill: rgb(38, 38, 58);"/>
			<path class="st84" d="M1482.5,1665c-118.1,0-234.8-14.9-209,52.9c25.8,67.9,154.7,142.5,154.7,142.5L1482.5,1665z" style="fill: rgb(49, 48, 68);"/>
			<path class="st84" d="M1970.1,1339.5c-321.6-52.9-434.3-9.5-468.2,99.1c-33.9,108.6-132.4,433.4-132.4,433.4h481&#10;&#9;&#9;&#9;&#9;C1988.9,1714.6,2205.8,1378.3,1970.1,1339.5z" style="fill: rgb(49, 48, 68);"/>
			<path class="st85" d="M1970.1,1339.5c-321.6-52.9-434.3-9.5-468.2,99.1c-28.9,92.4-104.5,341.5-126.4,413.6&#10;&#9;&#9;&#9;&#9;c492.6-49.2,278.1-319,697.8-420.2C2066.8,1384.8,2036.3,1350.4,1970.1,1339.5z" style="fill: rgb(63, 61, 81);"/>
		</g>
	</g>
	<g>
		<g>
			<path class="st83" d="M1000.6,1691.7c31.8,72.3-15.7,155.1-84.9,176.8s-82.8-107.2-82.8-107.2L1000.6,1691.7z" style="fill: rgb(38, 38, 58);"/>
			<path class="st84" d="M789.5,1665c118.1,0,234.8-14.9,209,52.9c-25.8,67.9-154.7,142.5-154.7,142.5L789.5,1665z" style="fill: rgb(49, 48, 68);"/>
			<path class="st84" d="M301.9,1339.5c321.6-52.9,434.3-9.5,468.2,99.1c33.9,108.6,132.4,433.4,132.4,433.4h-481&#10;&#9;&#9;&#9;&#9;C283.1,1714.6,66.2,1378.3,301.9,1339.5z" style="fill: rgb(49, 48, 68);"/>
			<path class="st85" d="M301.9,1339.5c321.6-52.9,434.3-9.5,468.2,99.1c28.9,92.4,104.5,341.5,126.4,413.6&#10;&#9;&#9;&#9;&#9;c-492.6-49.2-278.1-319-697.8-420.2C205.2,1384.8,235.7,1350.4,301.9,1339.5z" style="fill: rgb(63, 61, 81);"/>
		</g>
	</g>
</g></g></svg>